# xmcd
#
# Track frame offsets:
#  150
#  21430
#  41380
#
# Disc length: 771 seconds
#
# Revision: 0
# Processed by: cddbd v1.5.1PL0 Copyright (c) Steve Scherf et al.
# Submitted via: Collectorz.com Music Collector 6.9
#
DISCID=1c030103
DTITLE=Neil Young - Rockin' In The Free World
DYEAR=1989
DGENRE=
TTITLE0=Rockin' In The Free World
TTITLE1=Cocaine Eyes
TTITLE2=Rockin In The Free World (live acoustic)
EXTD=
EXTT0=
EXTT1=
EXTT2=
PLAYORDER=
